PathFileType	4	(X/Y/Z)	C:\Users\WrightLab\Desktop\Jo\P5V210.trc
DataRate	CameraRate	NumFrames	NumMarkers	Units	OrigDataRate	OrigDataStartFrame	OrigNumFrames
100.00	100.00	       19	19	mm	100.00	359	       716
Frame#	Time	Headset_Front			Headset_Back			Headset_Left			Headset_Right			Left_Shoulder			Right_Shoulder			Sternum			C7			Left Elbow			Right Elbow			Left Wrist			Right Wrist			Left ASIS			Right ASIS			S2			Left Knee			Right Knee			Left Ankle			Right Ankle			
		X1	Y1	Z1	X2	Y2	Z2	X3	Y3	Z3	X4	Y4	Z4	X5	Y5	Z5	X6	Y6	Z6	X7	Y7	Z7	X8	Y8	Z8	X9	Y9	Z9	X10	Y10	Z10	X11	Y11	Z11	X12	Y12	Z12	X13	Y13	Z13	X14	Y14	Z14	X15	Y15	Z15	X16	Y16	Z16	X17	Y17	Z17	X18	Y18	Z18	X19	Y19	Z19	

359	3.580							-182.47240	1595.39917	-328.91730	-410.89175	1564.70483	-296.71622	-90.76480	1501.75964	-523.84912	-476.56403	1446.00818	-411.89908	-270.49948	1301.45215	-405.19809	-331.65103	1517.15210	-588.03790	2.01993	1214.23523	-546.14410	-631.56018	1222.07654	-330.53125	-11.07593	979.12750	-447.53717	-663.31458	1109.55164	-107.03571	-113.32428	921.89709	-425.22314	-397.21967	929.68048	-360.03000	-271.89615	967.52600	-667.12732	-87.37828	497.57837	-448.93857	-409.22739	555.82831	-256.74152	-196.07428	82.14439	-498.07944	-434.21085	181.20189	-505.49036	
360	3.590							-182.45183	1595.84424	-324.28345	-410.62000	1564.89294	-290.35461	-90.79605	1502.52612	-518.43329	-476.62415	1446.82422	-405.57132	-271.57974	1301.80322	-400.84048	-332.45135	1518.08557	-582.24481	2.06047	1214.29810	-541.05469	-631.88599	1221.99133	-324.70383	-11.13083	981.15594	-440.32568	-662.48932	1109.78809	-100.99544	-113.57018	921.83771	-421.05469	-397.96655	929.52991	-355.07629	-273.97620	968.32819	-662.04919	-86.85404	497.80826	-444.67355	-407.46472	558.45197	-250.51376	-196.09978	82.37003	-497.91324	-435.63873	173.21101	-484.39133	
361	3.600							-182.25194	1595.67554	-317.66461	-410.08676	1565.20068	-283.59280	-91.51942	1502.64551	-512.20386	-477.75027	1446.75842	-399.51913	-270.98325	1302.43152	-395.58121	-332.93304	1518.47522	-576.48468	0.69240	1215.42688	-535.05450	-632.08008	1222.13147	-318.39575	-12.88930	981.37799	-435.63214	-662.11493	1110.10327	-96.12422	-113.91954	922.63910	-417.32303	-398.25378	929.70337	-347.15359	-275.63358	968.96454	-657.13641	-87.09072	496.87427	-438.84488	-405.25995	559.86383	-244.50748	-196.29114	82.60100	-497.90036	-436.28455	164.32883	-461.54340	
362	3.610							-182.25160	1596.41821	-312.30264	-409.72650	1565.64893	-277.90506	-92.60618	1502.82520	-507.09998	-477.42093	1447.07129	-393.19293	-270.72217	1302.78748	-389.64658	-333.76895	1518.73584	-570.70880	0.57576	1216.21021	-531.67145	-632.22192	1221.94141	-312.76874	-12.87105	982.88892	-428.51590	-660.34778	1109.20959	-89.74319	-113.99149	922.48981	-412.99496	-398.29678	930.38446	-340.19843	-277.75232	969.67047	-651.89185	-87.88174	495.93170	-433.95914	-403.01056	560.36798	-239.82275	-196.29320	82.66878	-497.85205	-437.06760	155.67067	-439.30615	
363	3.620							-182.06854	1596.50586	-305.99704	-409.62979	1565.83350	-271.79028	-93.10632	1503.56836	-502.11749	-477.42047	1446.99902	-386.67471	-271.31604	1303.48242	-382.99921	-334.83331	1519.49146	-564.92218	-0.73640	1216.10461	-524.63770	-632.45532	1221.63318	-307.26740	-14.73344	983.41669	-424.06369	-658.64844	1108.88916	-83.10980	-113.50036	923.03693	-408.41037	-399.56757	931.28931	-332.66025	-279.29547	970.54810	-646.53357	-88.90993	494.65002	-428.93967	-399.88464	560.12555	-234.66991	-196.28120	82.76484	-497.78659	-437.41724	147.06548	-414.55316	
364	3.630							-182.06326	1597.14575	-301.39987	-409.77808	1565.76477	-265.06189	-93.52821	1503.90076	-496.70810	-478.97665	1447.81750	-380.94208	-271.80252	1303.78906	-377.58603	-335.55911	1520.18579	-558.88074	-1.47237	1217.09314	-522.43439	-632.12915	1221.73254	-301.69916	-15.50960	984.82867	-416.86240	-658.17053	1108.39319	-77.92022	-113.49628	923.74097	-403.78961	-399.99713	931.26587	-326.02771	-281.20065	971.04767	-641.32098	-90.19180	493.81866	-424.46466	-398.52847	558.82831	-232.52066	-196.63007	83.37820	-497.74478	-437.19458	139.16209	-389.68338	
365	3.640							-182.06085	1597.54065	-296.73050	-409.18768	1566.15466	-258.74045	-93.93810	1504.27173	-492.08527	-478.35281	1447.00366	-374.18484	-272.08414	1303.28992	-373.27066	-336.50909	1520.47620	-552.85095	-2.26183	1217.35522	-516.98785	-631.74420	1221.08972	-295.92877	-16.97076	985.75574	-412.71408	-656.30902	1108.00525	-72.13403	-112.99781	924.67670	-398.81207	-400.65207	930.78668	-320.09109	-282.89127	972.16382	-635.79950	-91.50064	493.79581	-419.60861	-396.25412	557.98871	-228.02228	-196.81587	83.67412	-497.60843	-437.04968	131.65959	-365.77194	
366	3.650							-182.02827	1597.98230	-291.59280	-408.76852	1566.47363	-252.50557	-94.98084	1504.90308	-487.31659	-478.93317	1447.48169	-368.12134	-271.86249	1303.69348	-365.95599	-337.11200	1520.78345	-547.06854	-3.19696	1217.69385	-511.96274	-631.57001	1221.29529	-290.97986	-17.19173	987.49164	-406.58185	-654.62683	1107.77795	-67.01453	-113.77433	924.63055	-394.18204	-400.89435	931.44159	-313.72775	-285.25204	973.50751	-631.22418	-93.34124	493.55890	-415.98160	-394.33932	555.76819	-226.83734	-196.97713	84.22190	-496.77393	-436.40198	124.78734	-341.91196	
367	3.660							-181.84911	1598.31763	-286.49881	-408.14713	1566.52563	-246.44598	-95.36948	1505.10693	-482.45801	-478.76135	1447.64587	-361.76877	-272.25128	1304.33875	-361.68924	-338.03317	1521.40283	-540.81506	-4.57912	1218.19885	-508.09665	-631.17371	1220.11938	-283.65213	-18.66804	988.14948	-402.60928	-652.65363	1106.84143	-61.32900	-113.95825	924.21844	-388.94232	-401.74915	931.47412	-308.04361	-286.87811	973.71472	-626.60138	-94.47879	494.32471	-412.15009	-392.45416	553.82635	-226.22891	-196.99164	84.31056	-496.70834	-435.44229	118.83398	-317.83237	
368	3.670							-181.71831	1598.15735	-280.79227	-408.26367	1566.32324	-239.79176	-96.73695	1504.93640	-477.31262	-479.06293	1447.15576	-354.75922	-271.96301	1304.90454	-356.38846	-339.31250	1521.89136	-534.91553	-5.72937	1218.48755	-504.61313	-630.88977	1219.34961	-277.80627	-18.79012	989.07367	-396.89764	-650.66974	1106.28760	-55.18439	-114.20014	924.41699	-384.75461	-402.76114	932.05457	-301.01105	-288.33243	974.00525	-621.06152	-96.88317	494.50400	-408.44489	-392.39276	550.72144	-226.29710	-197.34180	84.56499	-496.54947	-434.48862	113.88792	-294.82388	
369	3.680							-181.66626	1598.70850	-275.78964	-408.24475	1566.57556	-233.77390	-97.45398	1506.37769	-473.06085	-479.50385	1447.52600	-349.15475	-272.74841	1304.76245	-351.75143	-340.48080	1521.89343	-529.63361	-6.46189	1218.83862	-500.97763	-630.30963	1219.11804	-272.22476	-20.74219	989.54309	-392.26666	-647.33344	1105.08838	-49.51941	-114.47237	925.01190	-380.11462	-403.27100	932.05511	-295.46976	-290.01483	974.43347	-615.39264	-97.02784	495.81439	-405.36713	-392.33954	546.81622	-226.38150	-197.51337	84.65215	-496.30090	-432.88843	109.89497	-272.19379	
370	3.690							-181.61629	1598.69287	-271.51263	-407.72989	1566.94714	-228.17523	-98.76395	1505.37659	-468.06931	-480.38361	1447.82568	-343.57422	-272.83127	1304.23645	-344.47015	-341.86664	1521.93738	-524.11377	-7.81801	1218.28711	-495.53894	-629.93707	1217.88013	-265.19745	-21.61884	990.25159	-387.87183	-646.02814	1104.62048	-42.95761	-112.01510	926.46606	-373.55243	-404.11148	931.22974	-289.93967	-291.46201	974.40002	-609.57867	-98.48809	495.50995	-402.93616	-391.89093	542.83435	-227.33293	-197.79590	84.98217	-496.01773	-430.76770	107.28517	-252.81842	
371	3.700							-181.40036	1598.69739	-265.74652	-407.11984	1566.41455	-222.08997	-100.08219	1505.28552	-463.20709	-480.99911	1447.45703	-336.66940	-273.63214	1304.53467	-340.29633	-343.37335	1522.08057	-518.54620	-9.08895	1218.31775	-491.47934	-629.23132	1216.81592	-259.57202	-22.73195	990.73096	-383.73441	-641.84088	1102.76941	-36.50964	-116.43610	925.92560	-371.01984	-404.25104	931.37762	-283.60034	-292.44788	974.07794	-605.11810	-99.32996	495.27017	-399.99701	-392.43256	536.82153	-228.66975	-198.16386	84.67701	-496.19156	-428.51312	105.72300	-233.72562	
372	3.710							-181.50938	1598.88330	-262.27271	-406.60596	1566.34766	-215.87959	-101.45609	1505.11243	-459.39099	-480.85049	1447.12903	-329.87997	-273.98090	1304.41479	-333.33432	-344.74289	1521.74646	-513.00385	-9.45679	1218.32666	-487.68634	-628.41022	1215.41724	-253.27634	-23.78191	991.29675	-378.65866	-638.45459	1101.85181	-31.73088	-116.27186	926.56989	-365.56128	-404.26306	931.34650	-278.08276	-293.71750	974.09937	-599.22131	-100.17667	494.99036	-397.71204	-394.11618	530.64215	-230.16566	-198.12987	85.28239	-495.36215	-426.11862	105.35419	-217.49397	
373	3.720							-181.40608	1598.33093	-258.53674	-406.12094	1566.15820	-210.16360	-102.41702	1504.59875	-455.06747	-481.76855	1447.30225	-324.23355	-273.91733	1303.99255	-328.91125	-346.34601	1521.54724	-507.84811	-11.16689	1218.24695	-484.17154	-628.53137	1214.86292	-247.83134	-25.19458	991.15576	-374.33261	-634.49713	1100.65564	-25.26243	-118.44951	923.73151	-366.49258	-404.35556	931.35651	-271.79654	-294.79877	973.81232	-593.65387	-101.11517	494.99881	-395.71884	-395.86548	524.27051	-230.56242	-198.17705	85.30669	-495.33548	-423.61411	104.92663	-204.21429	
374	3.730							-181.53668	1598.59326	-255.40292	-405.56754	1565.68237	-204.00195	-104.77637	1505.18835	-452.25763	-482.45743	1446.22998	-317.72168	-273.81125	1304.34558	-323.97629	-348.25449	1520.91309	-502.50565	-12.64288	1218.40356	-481.58990	-628.05286	1213.02039	-240.64622	-26.14467	991.96313	-370.31381	-630.61798	1099.66333	-19.15792	-119.92436	922.71509	-362.47073	-403.95926	930.55853	-266.39883	-296.08841	973.10193	-588.57031	-101.04536	495.57761	-392.91846	-398.48526	517.45868	-231.64445	-198.21068	85.34048	-495.30484	-421.10724	103.93160	-192.70839	
375	3.740							-181.47945	1598.14990	-250.92702	-404.99054	1565.38696	-197.98738	-106.25482	1504.41101	-449.15665	-482.60858	1445.92590	-311.64291	-274.87952	1304.35095	-319.35782	-350.07455	1520.64514	-496.99481	-15.48701	1217.24792	-479.60602	-628.54657	1212.38062	-234.92000	-27.63370	992.02045	-366.61926	-626.44873	1098.66699	-13.31865	-120.30387	922.93866	-359.22821	-404.37173	929.60767	-260.51578	-297.66324	972.77094	-582.72284	-101.30788	495.56729	-390.56326	-401.97842	512.30756	-230.71251	-198.52280	85.24348	-495.24106	-419.07626	102.81136	-185.45897	
376	3.750							-181.47139	1597.79700	-247.38329	-404.94601	1565.20349	-192.66063	-108.17453	1503.68384	-445.03723	-484.77628	1445.78601	-305.52045	-276.09335	1303.47717	-315.14746	-352.11511	1520.17700	-491.54803	-16.32493	1217.51855	-476.40305	-628.04718	1211.15723	-228.44611	-29.31566	992.13885	-363.33337	-622.46515	1097.37903	-7.34463	-120.58946	923.12860	-353.47992	-404.37549	929.80731	-254.64696	-299.20911	971.68823	-578.24213	-102.55126	495.72949	-388.06430	-406.88876	508.62756	-228.57510	-198.52861	85.26254	-495.22644	-417.55347	101.16023	-179.95277	
377	3.760							-181.43529	1597.16687	-243.73463	-404.94519	1565.19348	-187.63889	-109.95522	1503.25061	-441.32169	-485.18829	1444.49841	-299.10550	-276.32614	1303.01880	-309.49646	-354.29428	1519.45337	-486.61591	-17.34455	1217.04041	-472.74460	-627.55823	1209.62964	-222.17555	-30.36516	991.73401	-359.85187	-617.46246	1096.43225	-0.77034	-120.92982	922.91663	-348.02975	-403.84528	929.28461	-248.47989	-300.93018	971.07886	-572.51965	-104.03938	495.78790	-384.78677	-410.15811	506.53571	-225.61134	-198.54440	85.26759	-495.21970	-416.85098	99.62327	-178.95906	
